<?xml version="1.0" encoding="UTF-8" standalone="no"?>
<!-- Generator: Adobe Illustrator 18.1.1, SVG Export Plug-In . SVG Version: 6.00 Build 0)  -->

<svg
   xmlns:dc="http://purl.org/dc/elements/1.1/"
   xmlns:cc="http://creativecommons.org/ns#"
   xmlns:rdf="http://www.w3.org/1999/02/22-rdf-syntax-ns#"
   xmlns:svg="http://www.w3.org/2000/svg"
   xmlns="http://www.w3.org/2000/svg"
   xmlns:sodipodi="http://sodipodi.sourceforge.net/DTD/sodipodi-0.dtd"
   xmlns:inkscape="http://www.inkscape.org/namespaces/inkscape"
   version="1.1"
   id="Capa_1"
   x="0px"
   y="0px"
   viewBox="0 0 478.165 478.165"
   style="enable-background:new 0 0 478.165 478.165;"
   xml:space="preserve"
   inkscape:version="0.48.4 r9939"
   width="100%"
   height="100%"
   sodipodi:docname="pin.svg"><metadata
     id="metadata3101"><rdf:RDF><cc:Work
         rdf:about=""><dc:format>image/svg+xml</dc:format><dc:type
           rdf:resource="http://purl.org/dc/dcmitype/StillImage" /><dc:title></dc:title></cc:Work></rdf:RDF></metadata><defs
     id="defs3099" /><sodipodi:namedview
     pagecolor="#ffffff"
     bordercolor="#666666"
     borderopacity="1"
     objecttolerance="10"
     gridtolerance="10"
     guidetolerance="10"
     inkscape:pageopacity="0"
     inkscape:pageshadow="2"
     inkscape:window-width="1366"
     inkscape:window-height="713"
     id="namedview3097"
     showgrid="false"
     inkscape:zoom="1.1314086"
     inkscape:cx="243.05984"
     inkscape:cy="239.0825"
     inkscape:window-x="0"
     inkscape:window-y="30"
     inkscape:window-maximized="1"
     inkscape:current-layer="Capa_1" /><g
     id="g3064"><polygon
       id="Pinboard"
       points="291.282,268.509 384.723,169.25 294.709,191.246 151.04,58.874 151.04,0 0,154.527 68.258,150.821    190.529,301.642 176.224,382.492 266.059,290.545 478.165,478.165  " /></g><g
     id="g3067" /><g
     id="g3069" /><g
     id="g3071" /><g
     id="g3073" /><g
     id="g3075" /><g
     id="g3077" /><g
     id="g3079" /><g
     id="g3081" /><g
     id="g3083" /><g
     id="g3085" /><g
     id="g3087" /><g
     id="g3089" /><g
     id="g3091" /><g
     id="g3093" /><g
     id="g3095" /><path
     style="fill:#008000"
     d="m 366.63976,378.80744 c -54.92211,-48.58466 -100.28648,-88.22481 -100.80974,-88.08923 -0.52325,0.13559 -20.61654,20.3906 -44.65175,45.01115 -24.03522,24.62055 -43.78336,44.68945 -43.88477,44.59756 -0.10142,-0.0919 2.94925,-17.84712 6.77925,-39.45604 3.82999,-21.60893 6.65599,-39.68916 6.28,-40.17829 -1.04153,-1.35492 -62.23803,-76.9226 -93.788486,-115.81345 l -27.983008,-34.49342 -28.633962,1.57316 c -15.74868,0.86524 -30.6912879,1.47225 -33.2057952,1.3489 L 2.1696666,153.08351 76.124036,77.424517 150.0784,1.7655266 l 0.44193,28.8796314 0.44193,28.879633 68.94061,63.476549 c 37.91733,34.91209 70.21072,64.66973 71.76309,66.12807 l 2.82249,2.65151 42.25406,-10.31272 c 23.23974,-5.672 43.20667,-10.56249 44.37096,-10.86775 1.34586,-0.35287 -14.66978,17.26856 -43.97174,48.38051 -25.34874,26.91454 -46.08862,49.19826 -46.08862,49.51937 0,0.32112 39.60768,45.01527 88.01707,99.32034 48.40939,54.30507 87.88452,98.86834 87.72251,99.0295 -0.16201,0.16115 -45.23083,-39.45807 -100.15293,-88.04273 l 0,0 z"
     id="path3103"
     inkscape:connector-curvature="0" /></svg>